<svg id="Capa_1" enable-background="new 0 0 512 512" height="512" viewBox="0 0 512 512" width="512" xmlns="http://www.w3.org/2000/svg"><g clip-rule="evenodd" fill-rule="evenodd"><path d="m10.794 186.96c31.407-33.861 82.345-33.861 113.752 0-20.324-22.47 1.559-152.56 56.89-170.581-94.25-.001-170.642 76.364-170.642 170.581z" fill="#f3eff0"/><path d="m124.546 186.96c31.407-33.861 82.345-33.861 113.752 0 20.324-22.47-1.559-152.56-56.862-170.581-55.331 18.021-77.214 148.111-56.89 170.581z" fill="#ffda8f"/><path d="m238.298 186.96c31.407-33.861 82.345-33.861 113.752 0 0-16.945-2.466-33.295-7.058-48.738-8.419-28.279-23.981-53.498-44.616-73.531v-.028c-30.727-29.866-72.679-48.284-118.939-48.284 55.302 18.021 77.185 148.111 56.861 170.581z" fill="#f3eff0"/><path d="m160.233 358.816c14.456 2.834 28.629 6.546 42.377 11.363v-205.576c-13.861-4.052-28.516-4.052-42.377 0z" fill="#dad0d3"/><path d="m344.992 138.222h59.47c19.502 0 35.347-15.811 35.347-35.335 0-19.523-15.845-35.335-35.347-35.335 0-28.761-23.329-52.053-52.071-52.053-27.807 0-50.512 21.762-52.015 49.163 20.635 20.062 36.197 45.281 44.616 73.56z" fill="#99ebfa"/><path d="m366.138 326.429h85.264c15.987 0 28.97-12.978 28.97-28.959s-12.982-28.931-28.97-28.931c0-23.547-19.077-42.617-42.632-42.617-23.527 0-42.632 19.07-42.632 42.617-15.987 0-28.941 12.949-28.941 28.931 0 15.981 12.954 28.959 28.941 28.959z" fill="#99ebfa"/><path d="m10 496.5h318.806c-9.808-27.599-22.989-50.013-38.607-68.233-18.538-21.62-40.591-37.29-64.629-48.681-7.483-3.542-15.137-6.659-22.96-9.408-13.748-4.817-27.921-8.529-42.377-11.363-50.569-9.946-104.03-9.209-150.233-9.209v146.894z" fill="#ffe6b4"/><path d="m290.199 428.267c22.478-3.06 53.347-2.947 87.39 9.521 0 0 55.756 25.105 124.41 0v-57.55c-68.654 25.134-124.41 0-124.41 0-61.964-22.697-137.846-4.42-152.019-.652 24.038 11.392 46.091 27.061 64.629 48.681z" fill="#99ebfa"/><path d="m328.806 496.5h173.194v-58.712c-68.654 25.105-124.41 0-124.41 0-34.043-12.468-64.912-12.581-87.39-9.521 15.618 18.22 28.799 40.634 38.606 68.233z" fill="#33d6f5"/></g><path d="m507.728 372.042c-2.677-1.871-6.1-2.317-9.166-1.194-63.712 23.325-116.359.497-116.863.274-.22-.099-.444-.19-.671-.274-60.508-22.152-133.2-7.1-154.484-1.838-4.513-2.045-9.159-3.973-13.934-5.795v-183.731c6.696 3.61 12.896 8.389 18.356 14.276 3.897 4.201 10.764 4.205 14.663 0 13.276-14.313 30.872-22.196 49.545-22.196s36.268 7.883 49.544 22.196c2.796 3.015 7.155 4.01 10.984 2.509 3.829-1.502 6.348-5.196 6.348-9.309 0-13.295-1.458-26.254-4.198-38.738h46.609c25.004 0 45.347-20.337 45.347-45.334 0-21.797-15.466-40.05-36.003-44.367-4.388-29.95-30.257-53.021-61.415-53.021-26.581 0-49.425 16.753-58.225 40.481-30.874-24.729-70.006-39.556-112.541-39.6-.039-.001-.078-.001-.117-.001-.024 0-.048-.001-.072-.001-.017 0-.034.001-.051.001-.052 0-.103.001-.155.002-99.511.111-180.436 81.073-180.436 180.578 0 4.113 2.519 7.807 6.348 9.309 1.187.466 2.424.691 3.65.691 2.73 0 5.404-1.119 7.334-3.2 13.277-14.313 30.872-22.196 49.545-22.196s36.268 7.883 49.544 22.196c3.898 4.203 10.764 4.204 14.663 0 5.46-5.887 11.66-10.666 18.356-14.276v167.355c-44.389-7.313-89.939-7.278-131.449-7.238l-8.784.006c-5.523 0-10 4.477-10 10v146.893c0 5.523 4.477 10 10 10h318.807 173.193c5.523 0 10-4.477 10-10v-116.262c0-3.266-1.595-6.326-4.272-8.196zm-379.439-202.046c-2.395-14.051-1.419-39.599 6.248-68.383 10.305-38.689 27.671-66.146 46.898-74.532 19.216 8.386 36.572 35.842 46.874 74.528 7.665 28.786 8.641 54.335 6.246 68.387-15.341-11.964-33.757-18.432-53.133-18.432s-37.792 6.468-53.133 18.432zm166.885-18.432c-13.972 0-27.442 3.375-39.624 9.733 1.073-19.799-2.382-44.06-7.914-64.834-4.062-15.255-13.626-44.699-31.204-66.235 64.647 14.42 114.73 67.906 124.055 134.292-13.612-8.453-29.131-12.956-45.313-12.956zm57.216-126.064c23.198 0 42.072 18.865 42.072 42.053 0 5.523 4.477 10 10 10 13.977 0 25.347 11.365 25.347 25.335 0 13.969-11.371 25.334-25.347 25.334h-52.178c-8.644-25.111-22.85-48.154-41.473-67.245 3.175-20.207 20.677-35.477 41.579-35.477zm-284.72 126.064c-16.182 0-31.701 4.503-45.313 12.958 9.326-66.384 59.415-119.869 124.069-134.292-17.584 21.536-27.151 50.98-31.215 66.235-5.533 20.773-8.99 45.033-7.917 64.831-12.183-6.357-25.652-9.732-39.624-9.732-.001 0 .001 0 0 0zm102.563 20.975c3.669-.635 7.404-.975 11.188-.975s7.52.34 11.188.975v183.904c-7.384-2.197-14.852-4.108-22.377-5.77v-178.134zm-150.233 313.961v-126.899c43.729-.037 91.574-.002 136.583 8.519 1.088.427 2.267.672 3.502.69 12.779 2.555 25.316 5.81 37.445 9.973 1.089.645 2.309 1.086 3.613 1.278 6.285 2.267 12.453 4.788 18.485 7.583 1.021.748 2.179 1.299 3.412 1.619 21.921 10.638 41.929 25.091 58.908 44.71.431.623.922 1.196 1.476 1.702 11.936 14.151 22.328 30.927 30.766 50.826h-294.19zm315.759 0c-7.08-18.31-15.915-34.938-26.405-49.798 14.758-.479 29.503.946 44.026 4.286.754.173 1.508.257 2.25.257 4.555 0 8.672-3.133 9.737-7.761 1.238-5.382-2.122-10.749-7.504-11.987-20.968-4.823-42.353-6.079-63.65-3.763-4.353-4.811-8.921-9.379-13.702-13.699-8.267-7.47-17.124-14.212-26.636-20.278 29.878-5.109 78.409-9.353 119.981 5.765 5.231 2.273 54.945 22.609 118.144 4.49v36.638c-15.124 4.859-30.761 7.614-46.579 8.198-5.52.204-9.828 4.843-9.625 10.362.199 5.394 4.634 9.631 9.986 9.631.125 0 .25-.002.375-.007 15.526-.573 30.889-3.026 45.841-7.294v34.96z"/><path d="m145.295 410.815c-5.523 0-10 4.477-10 10s4.477 10 10 10h.057c5.523 0 9.972-4.477 9.972-10s-4.506-10-10.029-10z"/><path d="m212.22 430.537c-5.523 0-10 4.477-10 10s4.477 10 10 10h.028c5.523 0 9.986-4.477 9.986-10s-4.491-10-10.014-10z"/><path d="m88.631 440.738c-5.523 0-10 4.477-10 10s4.477 10 10 10h.057c5.523 0 9.971-4.477 9.971-10s-4.505-10-10.028-10z"/><path d="m62.327 390.697c-5.523 0-10 4.477-10 10s4.477 10 10 10h.028c5.523 0 9.986-4.477 9.986-10s-4.491-10-10.014-10z"/><path d="m408.771 215.921c-25.991 0-47.642 18.933-51.881 43.727-17.022 4.161-29.693 19.54-29.693 37.821 0 21.482 17.469 38.959 38.941 38.959h85.264c21.488 0 38.97-17.477 38.97-38.959 0-18.284-12.683-33.665-29.722-37.823-4.238-24.794-25.889-43.725-51.879-43.725zm61.601 81.548c0 10.454-8.51 18.959-18.97 18.959h-85.264c-10.444 0-18.941-8.505-18.941-18.959 0-10.438 8.497-18.931 18.941-18.931 5.523 0 10-4.477 10-10 0-17.985 14.639-32.617 32.632-32.617s32.632 14.632 32.632 32.617c0 5.523 4.477 10 10 10 10.46.001 18.97 8.493 18.97 18.931z"/><path d="m400.777 434.844c-5.523 0-10 4.477-10 10s4.477 10 10 10h.057c5.523 0 9.972-4.477 9.972-10s-4.506-10-10.029-10z"/></svg>